<svg width="23" height="23" viewBox="0 0 23 23" fill="none" xmlns="http://www.w3.org/2000/svg">
<path fill-rule="evenodd" clip-rule="evenodd" d="M11.9185 2.05347H12.022C13.7066 2.05345 15.0409 2.05344 16.0852 2.19384C17.1599 2.33833 18.0298 2.64277 18.7158 3.32877C19.4018 4.01477 19.7062 4.88464 19.8507 5.95936C19.9911 7.00364 19.9911 8.33798 19.9911 10.0226V13.7927C19.9911 15.4773 19.9911 16.8116 19.8507 17.8559C19.7062 18.9306 19.4018 19.8005 18.7158 20.4865C18.0298 21.1725 17.1599 21.4769 16.0852 21.6214C15.0409 21.7618 13.7066 21.7618 12.0219 21.7618H11.9185C10.2339 21.7618 8.89958 21.7618 7.8553 21.6214C6.78058 21.4769 5.91071 21.1725 5.22471 20.4865C4.53871 19.8005 4.23427 18.9306 4.08978 17.8559C3.94938 16.8116 3.94939 15.4773 3.9494 13.7927V10.0226C3.94939 8.33797 3.94938 7.00364 4.08978 5.95936C4.23427 4.88464 4.53871 4.01477 5.22471 3.32877C5.91071 2.64277 6.78058 2.33833 7.8553 2.19384C8.89958 2.05344 10.2339 2.05345 11.9185 2.05347ZM8.03851 3.55658C7.11626 3.68057 6.58492 3.9131 6.19698 4.30105C5.80904 4.68899 5.57651 5.22033 5.45251 6.14258C5.32586 7.0846 5.3244 8.32638 5.3244 10.0743V13.741C5.3244 15.4889 5.32586 16.7307 5.45251 17.6727C5.57651 18.5949 5.80904 19.1263 6.19698 19.5142C6.58492 19.9022 7.11627 20.1347 8.03851 20.2587C8.98054 20.3853 10.2223 20.3868 11.9702 20.3868C13.7182 20.3868 14.9599 20.3853 15.902 20.2587C16.8242 20.1347 17.3555 19.9022 17.7435 19.5142C18.1314 19.1263 18.364 18.5949 18.488 17.6727C18.6146 16.7307 18.6161 15.4889 18.6161 13.741V10.0743C18.6161 8.32638 18.6146 7.0846 18.488 6.14258C18.364 5.22033 18.1314 4.68899 17.7435 4.30105C17.3555 3.9131 16.8242 3.68057 15.902 3.55658C14.9599 3.42993 13.7182 3.42847 11.9702 3.42847C10.2223 3.42847 8.98054 3.42993 8.03851 3.55658ZM8.53274 5.49097C8.53274 5.11127 8.84054 4.80347 9.22024 4.80347H14.7202C15.0999 4.80347 15.4077 5.11127 15.4077 5.49097C15.4077 5.87066 15.0999 6.17847 14.7202 6.17847H9.22024C8.84054 6.17847 8.53274 5.87066 8.53274 5.49097ZM11.9702 15.3451C11.3374 15.3451 10.8244 15.8581 10.8244 16.491C10.8244 17.1238 11.3374 17.6368 11.9702 17.6368C12.6031 17.6368 13.1161 17.1238 13.1161 16.491C13.1161 15.8581 12.6031 15.3451 11.9702 15.3451ZM9.4494 16.491C9.4494 15.0988 10.578 13.9701 11.9702 13.9701C13.3625 13.9701 14.4911 15.0988 14.4911 16.491C14.4911 17.8832 13.3625 19.0118 11.9702 19.0118C10.578 19.0118 9.4494 17.8832 9.4494 16.491Z" fill="white"/>
</svg>
